<?xml version="1.0" encoding="utf-8"?>
<!-- Generator: Adobe Illustrator 16.0.0, SVG Export Plug-In . SVG Version: 6.00 Build 0)  -->
<!DOCTYPE svg PUBLIC "-//W3C//DTD SVG 1.1//EN" "http://www.w3.org/Graphics/SVG/1.1/DTD/svg11.dtd">
<svg version="1.1" id="Layer_2" xmlns="http://www.w3.org/2000/svg" xmlns:xlink="http://www.w3.org/1999/xlink" x="0px" y="0px"
	 width="126px" height="126px" viewBox="0 0 126 126" enable-background="new 0 0 126 126" xml:space="preserve">
<path d="M63,8.832C33.132,8.832,8.832,33.132,8.832,63c0,29.869,24.3,54.168,54.168,54.168S117.168,92.869,117.168,63
	C117.168,33.132,92.868,8.832,63,8.832z M100.471,100.444C90.059,110.815,77.566,116.002,63,116.002
	c8.185,0,15.211-5.187,21.083-15.558c5.871-10.374,8.807-22.885,8.807-37.533c0-14.608-2.936-27.107-8.807-37.503
	C78.212,15.016,71.186,9.819,63,9.819c14.566,0,27.058,5.197,37.47,15.588c10.414,10.396,15.623,22.895,15.623,37.503
	C116.094,77.559,110.885,90.07,100.471,100.444z"/>
</svg>
