<?xml version="1.0" encoding="utf-8"?>
<!-- Generator: Adobe Illustrator 16.0.0, SVG Export Plug-In . SVG Version: 6.00 Build 0)  -->
<!DOCTYPE svg PUBLIC "-//W3C//DTD SVG 1.1//EN" "http://www.w3.org/Graphics/SVG/1.1/DTD/svg11.dtd">
<svg version="1.1" id="Layer_2" xmlns="http://www.w3.org/2000/svg" xmlns:xlink="http://www.w3.org/1999/xlink" x="0px" y="0px"
	 width="126px" height="126px" viewBox="0 0 126 126" enable-background="new 0 0 126 126" xml:space="preserve">
<path d="M63,8.832C33.132,8.832,8.832,33.132,8.832,63c0,29.869,24.3,54.168,54.168,54.168S117.168,92.869,117.168,63
	C117.168,33.132,92.868,8.832,63,8.832z M32.552,100.534c8.49,10.373,18.689,15.558,30.597,15.558
	c-14.607,0-27.119-5.185-37.532-15.558C15.203,90.161,9.996,77.649,9.996,63c0-14.607,5.208-27.107,15.622-37.502
	C36.03,15.106,48.542,9.909,63.149,9.909c-11.908,0-22.107,5.198-30.597,15.589C24.062,35.893,19.817,48.393,19.817,63
	C19.817,77.649,24.062,90.161,32.552,100.534z"/>
</svg>
