<?xml version="1.0" encoding="utf-8"?>
<!-- Generator: Adobe Illustrator 16.0.0, SVG Export Plug-In . SVG Version: 6.00 Build 0)  -->
<!DOCTYPE svg PUBLIC "-//W3C//DTD SVG 1.1//EN" "http://www.w3.org/Graphics/SVG/1.1/DTD/svg11.dtd">
<svg version="1.1" id="Layer_2" xmlns="http://www.w3.org/2000/svg" xmlns:xlink="http://www.w3.org/1999/xlink" x="0px" y="0px"
	 width="126px" height="126px" viewBox="0 0 126 126" enable-background="new 0 0 126 126" xml:space="preserve">
<path d="M63,8.832C33.132,8.832,8.832,33.132,8.832,63c0,29.869,24.3,54.168,54.168,54.168S117.168,92.869,117.168,63
	C117.168,33.132,92.868,8.832,63,8.832z M78.393,100.533c-4.195,10.372-9.178,15.559-14.947,15.559
	c-14.568,0-27.046-5.187-37.438-15.559C15.613,90.159,10.416,77.649,10.416,63c0-14.608,5.197-27.107,15.591-37.502
	c10.393-10.391,22.87-15.59,37.438-15.59c5.77,0,10.752,5.199,14.947,15.59C82.586,35.893,84.682,48.392,84.682,63
	C84.682,77.649,82.586,90.159,78.393,100.533z"/>
</svg>
