<?xml version="1.0" encoding="utf-8"?>
<!-- Generator: Adobe Illustrator 16.0.0, SVG Export Plug-In . SVG Version: 6.00 Build 0)  -->
<!DOCTYPE svg PUBLIC "-//W3C//DTD SVG 1.1//EN" "http://www.w3.org/Graphics/SVG/1.1/DTD/svg11.dtd">
<svg version="1.1" id="Layer_2" xmlns="http://www.w3.org/2000/svg" xmlns:xlink="http://www.w3.org/1999/xlink" x="0px" y="0px"
	 width="126px" height="126px" viewBox="0 0 126 126" enable-background="new 0 0 126 126" xml:space="preserve">
<path d="M63,8.832C33.132,8.832,8.832,33.132,8.832,63c0,29.869,24.3,54.168,54.168,54.168S117.168,92.869,117.168,63
	C117.168,33.132,92.868,8.832,63,8.832z M100.702,100.533c-10.413,10.374-22.904,15.559-37.47,15.559
	c-8.225,0-15.262-5.186-21.113-15.559C36.266,90.16,33.342,77.65,33.342,63c0-14.607,2.924-27.108,8.776-37.5
	C47.97,15.106,55.007,9.908,63.232,9.908c14.566,0,27.058,5.198,37.47,15.592c10.414,10.392,15.622,22.893,15.622,37.5
	C116.324,77.65,111.116,90.16,100.702,100.533z"/>
</svg>
