<?xml version="1.0" encoding="utf-8"?>
<!-- Generator: Adobe Illustrator 16.0.0, SVG Export Plug-In . SVG Version: 6.00 Build 0)  -->
<!DOCTYPE svg PUBLIC "-//W3C//DTD SVG 1.1//EN" "http://www.w3.org/Graphics/SVG/1.1/DTD/svg11.dtd">
<svg version="1.1" id="Layer_2" xmlns="http://www.w3.org/2000/svg" xmlns:xlink="http://www.w3.org/1999/xlink" x="0px" y="0px"
	 width="126px" height="126px" viewBox="0 0 126 126" enable-background="new 0 0 126 126" xml:space="preserve">
<path d="M63,8.832C33.132,8.832,8.832,33.132,8.832,63c0,29.869,24.3,54.168,54.168,54.168S117.168,92.869,117.168,63
	C117.168,33.132,92.868,8.832,63,8.832z M48.541,100.534c4.194,10.373,9.197,15.558,15.007,15.558
	c-14.648,0-27.181-5.185-37.593-15.558C15.54,90.161,10.335,77.649,10.335,63c0-14.607,5.205-27.107,15.62-37.502
	C36.367,15.106,48.899,9.909,63.548,9.909c-5.81,0-10.813,5.198-15.007,15.589c-4.194,10.395-6.29,22.895-6.29,37.502
	C42.251,77.649,44.347,90.161,48.541,100.534z"/>
</svg>
