<?xml version="1.0" encoding="utf-8"?>
<!-- Generator: Adobe Illustrator 16.0.0, SVG Export Plug-In . SVG Version: 6.00 Build 0)  -->
<!DOCTYPE svg PUBLIC "-//W3C//DTD SVG 1.1//EN" "http://www.w3.org/Graphics/SVG/1.1/DTD/svg11.dtd">
<svg version="1.1" id="Layer_2" xmlns="http://www.w3.org/2000/svg" xmlns:xlink="http://www.w3.org/1999/xlink" x="0px" y="0px"
	 width="126px" height="126px" viewBox="0 0 126 126" enable-background="new 0 0 126 126" xml:space="preserve">
<path d="M63,8.832C33.132,8.832,8.832,33.132,8.832,63c0,29.869,24.3,54.168,54.168,54.168S117.168,92.869,117.168,63
	C117.168,33.132,92.868,8.832,63,8.832z M100.35,100.533C89.934,110.905,77.484,116.091,63,116.091c3.111,0,5.779-5.187,8.01-15.558
	C73.24,90.159,74.355,77.648,74.355,63c0-14.608-1.115-27.107-3.346-37.503C68.779,15.105,66.111,9.909,63,9.909
	c14.484,0,26.934,5.197,37.35,15.588C110.762,35.893,115.969,48.392,115.969,63C115.969,77.648,110.762,90.159,100.35,100.533z"/>
</svg>
