<?xml version="1.0" encoding="utf-8"?>
<!-- Generator: Adobe Illustrator 16.0.0, SVG Export Plug-In . SVG Version: 6.00 Build 0)  -->
<!DOCTYPE svg PUBLIC "-//W3C//DTD SVG 1.1//EN" "http://www.w3.org/Graphics/SVG/1.1/DTD/svg11.dtd">
<svg version="1.1" id="Layer_2" xmlns="http://www.w3.org/2000/svg" xmlns:xlink="http://www.w3.org/1999/xlink" x="0px" y="0px"
	 width="126px" height="126px" viewBox="0 0 126 126" enable-background="new 0 0 126 126" xml:space="preserve">
<path d="M63,8.832C33.132,8.832,8.832,33.132,8.832,63c0,29.869,24.3,54.168,54.168,54.168S117.168,92.869,117.168,63
	C117.168,33.132,92.868,8.832,63,8.832z M55.496,100.533c2.207,10.372,4.908,15.559,8.102,15.559
	c-14.566,0-27.047-5.187-37.441-15.559C15.762,90.159,10.568,77.649,10.568,63c0-14.608,5.193-27.107,15.588-37.502
	c10.395-10.391,22.875-15.59,37.441-15.59c-3.193,0-5.895,5.199-8.102,15.59C53.285,35.893,52.18,48.392,52.18,63
	C52.18,77.649,53.285,90.159,55.496,100.533z"/>
</svg>
