<?xml version="1.0" encoding="utf-8"?>
<!-- Generator: Adobe Illustrator 16.0.0, SVG Export Plug-In . SVG Version: 6.00 Build 0)  -->
<!DOCTYPE svg PUBLIC "-//W3C//DTD SVG 1.1//EN" "http://www.w3.org/Graphics/SVG/1.1/DTD/svg11.dtd">
<svg version="1.1" id="Layer_2" xmlns="http://www.w3.org/2000/svg" xmlns:xlink="http://www.w3.org/1999/xlink" x="0px" y="0px"
	 width="126px" height="126px" viewBox="0 0 126 126" enable-background="new 0 0 126 126" xml:space="preserve">
<path d="M63,8.832C33.132,8.832,8.832,33.132,8.832,63c0,29.869,24.3,54.168,54.168,54.168S117.168,92.869,117.168,63
	C117.168,33.132,92.868,8.832,63,8.832z M100.309,100.533c-10.412,10.374-22.883,15.559-37.406,15.559
	c-11.91,0-22.109-5.186-30.6-15.559C23.813,90.16,19.568,77.65,19.568,63c0-14.607,4.244-27.108,12.734-37.5
	c8.49-10.394,18.689-15.592,30.6-15.592c14.523,0,26.994,5.198,37.406,15.592C110.723,35.892,115.93,48.393,115.93,63
	C115.93,77.65,110.723,90.16,100.309,100.533z"/>
</svg>
