<?xml version="1.0" encoding="utf-8"?>
<!-- Generator: Adobe Illustrator 16.0.0, SVG Export Plug-In . SVG Version: 6.00 Build 0)  -->
<!DOCTYPE svg PUBLIC "-//W3C//DTD SVG 1.1//EN" "http://www.w3.org/Graphics/SVG/1.1/DTD/svg11.dtd">
<svg version="1.1" id="Layer_2" xmlns="http://www.w3.org/2000/svg" xmlns:xlink="http://www.w3.org/1999/xlink" x="0px" y="0px"
	 width="126px" height="126px" viewBox="0 0 126 126" enable-background="new 0 0 126 126" xml:space="preserve">
<path d="M63,8.832C33.132,8.832,8.832,33.132,8.832,63c0,29.869,24.3,54.168,54.168,54.168S117.168,92.869,117.168,63
	C117.168,33.132,92.868,8.832,63,8.832z M42.037,100.534c5.85,10.373,12.889,15.558,21.112,15.558
	c-14.606,0-27.108-5.185-37.5-15.558C15.255,90.161,10.059,77.649,10.059,63c0-14.607,5.197-27.107,15.59-37.502
	c10.392-10.392,22.894-15.589,37.5-15.589c-8.223,0-15.263,5.198-21.112,15.589C36.185,35.893,33.26,48.393,33.26,63
	C33.26,77.649,36.185,90.161,42.037,100.534z"/>
</svg>
