<?xml version="1.0" encoding="utf-8"?>
<!-- Generator: Adobe Illustrator 16.0.0, SVG Export Plug-In . SVG Version: 6.00 Build 0)  -->
<!DOCTYPE svg PUBLIC "-//W3C//DTD SVG 1.1//EN" "http://www.w3.org/Graphics/SVG/1.1/DTD/svg11.dtd">
<svg version="1.1" id="Layer_2" xmlns="http://www.w3.org/2000/svg" xmlns:xlink="http://www.w3.org/1999/xlink" x="0px" y="0px"
	 width="126px" height="126px" viewBox="0 0 126 126" enable-background="new 0 0 126 126" xml:space="preserve">
<path d="M63,8.832C33.132,8.832,8.832,33.132,8.832,63c0,29.869,24.3,54.168,54.168,54.168S117.168,92.869,117.168,63
	C117.168,33.132,92.868,8.832,63,8.832z M100.349,100.444c-10.415,10.372-22.906,15.558-37.473,15.558
	c13.299,0,24.714-5.187,34.25-15.558c9.533-10.374,14.301-22.885,14.301-37.533c0-14.608-4.768-27.107-14.301-37.503
	C87.59,15.016,76.175,9.819,62.876,9.819c14.566,0,27.058,5.197,37.473,15.588c10.411,10.396,15.618,22.895,15.618,37.503
	C115.967,77.559,110.76,90.07,100.349,100.444z"/>
</svg>
