<?xml version="1.0" encoding="utf-8"?>
<!-- Generator: Adobe Illustrator 16.0.0, SVG Export Plug-In . SVG Version: 6.00 Build 0)  -->
<!DOCTYPE svg PUBLIC "-//W3C//DTD SVG 1.1//EN" "http://www.w3.org/Graphics/SVG/1.1/DTD/svg11.dtd">
<svg version="1.1" id="Layer_2" xmlns="http://www.w3.org/2000/svg" xmlns:xlink="http://www.w3.org/1999/xlink" x="0px" y="0px"
	 width="126px" height="126px" viewBox="0 0 126 126" enable-background="new 0 0 126 126" xml:space="preserve">
<path d="M63,8.832C33.132,8.832,8.832,33.132,8.832,63c0,29.869,24.3,54.168,54.168,54.168S117.168,92.869,117.168,63
	C117.168,33.132,92.868,8.832,63,8.832z M37.184,100.534c7.221,10.373,15.926,15.558,26.115,15.558
	c-14.566,0-27.047-5.185-37.44-15.558C15.464,90.161,10.269,77.649,10.269,63c0-14.607,5.196-27.107,15.59-37.502
	C36.252,15.106,48.732,9.909,63.299,9.909c-10.189,0-18.895,5.198-26.115,15.589C29.961,35.893,26.351,48.393,26.351,63
	C26.351,77.649,29.961,90.161,37.184,100.534z"/>
</svg>
