<?xml version="1.0" encoding="utf-8"?>
<!-- Generator: Adobe Illustrator 16.0.0, SVG Export Plug-In . SVG Version: 6.00 Build 0)  -->
<!DOCTYPE svg PUBLIC "-//W3C//DTD SVG 1.1//EN" "http://www.w3.org/Graphics/SVG/1.1/DTD/svg11.dtd">
<svg version="1.1" id="Layer_2" xmlns="http://www.w3.org/2000/svg" xmlns:xlink="http://www.w3.org/1999/xlink" x="0px" y="0px"
	 width="126px" height="126px" viewBox="0 0 126 126" enable-background="new 0 0 126 126" xml:space="preserve">
<path d="M63,8.832C33.132,8.832,8.832,33.132,8.832,63c0,29.869,24.3,54.168,54.168,54.168S117.168,92.869,117.168,63
	C117.168,33.132,92.868,8.832,63,8.832z M100.347,100.444C89.934,110.815,77.485,116.002,63,116.002
	c10.146,0,18.841-5.187,26.084-15.558c7.243-10.374,10.863-22.885,10.863-37.533c0-14.608-3.62-27.107-10.863-37.503
	C81.841,15.016,73.146,9.819,63,9.819c14.485,0,26.934,5.197,37.347,15.588c10.414,10.396,15.622,22.895,15.622,37.503
	C115.968,77.559,110.761,90.07,100.347,100.444z"/>
</svg>
