<?xml version="1.0" encoding="utf-8"?>
<!-- Generator: Adobe Illustrator 16.0.0, SVG Export Plug-In . SVG Version: 6.00 Build 0)  -->
<!DOCTYPE svg PUBLIC "-//W3C//DTD SVG 1.1//EN" "http://www.w3.org/Graphics/SVG/1.1/DTD/svg11.dtd">
<svg version="1.1" id="Layer_2" xmlns="http://www.w3.org/2000/svg" xmlns:xlink="http://www.w3.org/1999/xlink" x="0px" y="0px"
	 width="126px" height="126px" viewBox="0 0 126 126" enable-background="new 0 0 126 126" xml:space="preserve">
<path d="M63,8.832C33.132,8.832,8.832,33.132,8.832,63c0,29.869,24.3,54.168,54.168,54.168S117.168,92.869,117.168,63
	C117.168,33.132,92.868,8.832,63,8.832z M89.721,100.533c-7.243,10.372-15.939,15.559-26.086,15.559
	c-14.648,0-27.182-5.187-37.593-15.559C15.627,90.159,10.42,77.649,10.42,63c0-14.608,5.207-27.107,15.622-37.502
	c10.412-10.391,22.945-15.59,37.593-15.59c10.146,0,18.843,5.199,26.086,15.59C96.962,35.893,100.583,48.392,100.583,63
	C100.583,77.649,96.962,90.159,89.721,100.533z"/>
</svg>
