<?xml version="1.0" encoding="utf-8"?>
<!-- Generator: Adobe Illustrator 16.0.0, SVG Export Plug-In . SVG Version: 6.00 Build 0)  -->
<!DOCTYPE svg PUBLIC "-//W3C//DTD SVG 1.1//EN" "http://www.w3.org/Graphics/SVG/1.1/DTD/svg11.dtd">
<svg version="1.1" id="Layer_2" xmlns="http://www.w3.org/2000/svg" xmlns:xlink="http://www.w3.org/1999/xlink" x="0px" y="0px"
	 width="126px" height="126px" viewBox="0 0 126 126" enable-background="new 0 0 126 126" xml:space="preserve">
<path d="M63,8.832C33.132,8.832,8.832,33.132,8.832,63c0,29.869,24.3,54.168,54.168,54.168S117.168,92.869,117.168,63
	C117.168,33.132,92.868,8.832,63,8.832z M100.699,100.658c-10.415,10.374-22.926,15.559-37.532,15.559
	c-3.193,0-5.894-5.186-8.103-15.559c-2.21-10.373-3.315-22.883-3.315-37.533c0-14.607,1.105-27.108,3.315-37.5
	c2.209-10.394,4.909-15.592,8.103-15.592c14.606,0,27.117,5.198,37.532,15.592c10.411,10.392,15.618,22.893,15.618,37.5
	C116.317,77.775,111.11,90.285,100.699,100.658z"/>
</svg>
