<?xml version="1.0" encoding="utf-8"?>
<!-- Generator: Adobe Illustrator 16.0.0, SVG Export Plug-In . SVG Version: 6.00 Build 0)  -->
<!DOCTYPE svg PUBLIC "-//W3C//DTD SVG 1.1//EN" "http://www.w3.org/Graphics/SVG/1.1/DTD/svg11.dtd">
<svg version="1.1" id="Layer_2" xmlns="http://www.w3.org/2000/svg" xmlns:xlink="http://www.w3.org/1999/xlink" x="0px" y="0px"
	 width="126px" height="126px" viewBox="0 0 126 126" enable-background="new 0 0 126 126" xml:space="preserve">
<path d="M63,8.832C33.132,8.832,8.832,33.132,8.832,63c0,29.869,24.3,54.168,54.168,54.168S117.168,92.869,117.168,63
	C117.168,33.132,92.868,8.832,63,8.832z M100.154,100.533c-10.416,10.374-22.904,15.559-37.473,15.559
	c-13.297,0-24.701-5.186-34.217-15.559C18.951,90.16,14.195,77.65,14.195,63c0-14.607,4.756-27.108,14.27-37.5
	C37.98,15.106,49.385,9.908,62.682,9.908c14.568,0,27.057,5.198,37.473,15.592c10.412,10.392,15.619,22.893,15.619,37.5
	C115.773,77.65,110.566,90.16,100.154,100.533z"/>
</svg>
