<?xml version="1.0" encoding="utf-8"?>
<!-- Generator: Adobe Illustrator 16.0.0, SVG Export Plug-In . SVG Version: 6.00 Build 0)  -->
<!DOCTYPE svg PUBLIC "-//W3C//DTD SVG 1.1//EN" "http://www.w3.org/Graphics/SVG/1.1/DTD/svg11.dtd">
<svg version="1.1" id="Layer_2" xmlns="http://www.w3.org/2000/svg" xmlns:xlink="http://www.w3.org/1999/xlink" x="0px" y="0px"
	 width="126px" height="126px" viewBox="0 0 126 126" enable-background="new 0 0 126 126" xml:space="preserve">
<path d="M63,8.832C33.132,8.832,8.832,33.132,8.832,63c0,29.869,24.3,54.168,54.168,54.168S117.168,92.869,117.168,63
	C117.168,33.132,92.868,8.832,63,8.832z M100.763,100.533C90.35,110.906,77.9,116.092,63.416,116.092
	c-5.81,0-10.813-5.186-15.008-15.559C44.214,90.16,42.117,77.65,42.117,63c0-14.607,2.097-27.108,6.291-37.5
	c4.195-10.394,9.198-15.592,15.008-15.592c14.484,0,26.934,5.198,37.347,15.592c10.414,10.392,15.622,22.893,15.622,37.5
	C116.385,77.65,111.177,90.16,100.763,100.533z"/>
</svg>
