<?xml version="1.0" encoding="utf-8"?>
<!-- Generator: Adobe Illustrator 16.0.0, SVG Export Plug-In . SVG Version: 6.00 Build 0)  -->
<!DOCTYPE svg PUBLIC "-//W3C//DTD SVG 1.1//EN" "http://www.w3.org/Graphics/SVG/1.1/DTD/svg11.dtd">
<svg version="1.1" id="Layer_2" xmlns="http://www.w3.org/2000/svg" xmlns:xlink="http://www.w3.org/1999/xlink" x="0px" y="0px"
	 width="126px" height="126px" viewBox="0 0 126 126" enable-background="new 0 0 126 126" xml:space="preserve">
<path d="M63,8.832C33.132,8.832,8.832,33.132,8.832,63c0,29.869,24.3,54.168,54.168,54.168S117.168,92.869,117.168,63
	C117.168,33.132,92.868,8.832,63,8.832z M94.111,100.533c-8.512,10.372-18.72,15.559-30.626,15.559
	c-14.568,0-27.049-5.187-37.442-15.559C15.649,90.159,10.454,77.649,10.454,63c0-14.608,5.195-27.107,15.589-37.502
	c10.393-10.391,22.874-15.59,37.442-15.59c11.906,0,22.114,5.199,30.626,15.59c8.51,10.395,12.768,22.894,12.768,37.502
	C106.879,77.649,102.621,90.159,94.111,100.533z"/>
</svg>
