<?xml version="1.0" encoding="utf-8"?>
<!-- Generator: Adobe Illustrator 16.0.0, SVG Export Plug-In . SVG Version: 6.00 Build 0)  -->
<!DOCTYPE svg PUBLIC "-//W3C//DTD SVG 1.1//EN" "http://www.w3.org/Graphics/SVG/1.1/DTD/svg11.dtd">
<svg version="1.1" id="Layer_2" xmlns="http://www.w3.org/2000/svg" xmlns:xlink="http://www.w3.org/1999/xlink" x="0px" y="0px"
	 width="126px" height="126px" viewBox="0 0 126 126" enable-background="new 0 0 126 126" xml:space="preserve">
<path d="M63,8.832C33.132,8.832,8.832,33.132,8.832,63c0,29.869,24.3,54.168,54.168,54.168S117.168,92.869,117.168,63
	C117.168,33.132,92.868,8.832,63,8.832z M71.79,100.533c-2.23,10.372-4.9,15.559-8.012,15.559c-14.648,0-27.18-5.187-37.592-15.559
	C15.772,90.159,10.565,77.649,10.565,63c0-14.608,5.207-27.107,15.621-37.502C36.599,15.107,49.13,9.908,63.778,9.908
	c3.111,0,5.781,5.199,8.012,15.59c2.23,10.395,3.344,22.894,3.344,37.502C75.134,77.649,74.021,90.159,71.79,100.533z"/>
</svg>
