<?xml version="1.0" encoding="utf-8"?>
<!-- Generator: Adobe Illustrator 16.0.0, SVG Export Plug-In . SVG Version: 6.00 Build 0)  -->
<!DOCTYPE svg PUBLIC "-//W3C//DTD SVG 1.1//EN" "http://www.w3.org/Graphics/SVG/1.1/DTD/svg11.dtd">
<svg version="1.1" id="Layer_2" xmlns="http://www.w3.org/2000/svg" xmlns:xlink="http://www.w3.org/1999/xlink" x="0px" y="0px"
	 width="126px" height="126px" viewBox="0 0 126 126" enable-background="new 0 0 126 126" xml:space="preserve">
<path d="M63,8.832C33.132,8.832,8.832,33.132,8.832,63c0,29.869,24.3,54.168,54.168,54.168S117.168,92.869,117.168,63
	C117.168,33.132,92.868,8.832,63,8.832z M29.082,100.534c9.514,10.373,20.918,15.558,34.217,15.558
	c-14.607,0-27.107-5.185-37.502-15.558C15.404,90.161,10.207,77.649,10.207,63c0-14.607,5.197-27.107,15.59-37.502
	C36.191,15.106,48.691,9.909,63.299,9.909c-13.299,0-24.703,5.198-34.217,15.589C19.568,35.893,14.811,48.393,14.811,63
	C14.811,77.649,19.568,90.161,29.082,100.534z"/>
</svg>
